# This file uses centimeters as units for non-parametric coordinates.

mtllib door_handle.mtl
g default
v 2.372177 14.839072 4.810866
v 2.372177 14.322350 4.810866
v 2.372177 14.063989 5.258359
v 2.372177 14.322350 5.705853
v 2.372177 14.839072 5.705855
v 2.372177 15.097432 5.258359
v 1.993910 15.028205 4.483277
v 1.993910 14.133216 4.483277
v 1.993910 13.685722 5.258359
v 1.993910 14.133216 6.033443
v 1.993910 15.028205 6.033443
v 1.993910 15.475699 5.258359
v 1.477188 15.097432 4.363372
v 1.477188 14.063989 4.363372
v 1.477188 13.547267 5.258359
v 1.477188 14.063989 6.153348
v 1.477188 15.097432 6.153348
v 1.477188 15.614154 5.258359
v 0.960466 15.028205 4.483277
v 0.960466 14.133216 4.483277
v 0.960466 13.685722 5.258359
v 0.960466 14.133216 6.033443
v 0.960466 15.028205 6.033443
v 0.960466 15.475699 5.258359
v 0.582200 14.839072 4.810866
v 0.582200 14.322350 4.810866
v 0.582200 14.063989 5.258359
v 0.582200 14.322350 5.705853
v 0.582200 14.839072 5.705855
v 0.582200 15.097432 5.258359
v 2.372177 14.792782 4.891042
v 2.372177 14.368640 4.891042
v 2.372177 14.156568 5.258359
v 2.372177 14.368640 5.625679
v 2.372177 14.792782 5.625679
v 2.372177 15.004853 5.258359
v 2.372177 14.650515 5.137451
v 2.372177 14.510905 5.137453
v 2.372177 14.441094 5.258361
v 2.372176 14.510905 5.379270
v 2.372176 14.650515 5.379269
v 2.372177 14.720323 5.258358
v 0.583498 14.720939 5.015473
v 0.583498 14.440482 5.015474
v 0.583498 14.300246 5.258358
v 0.583498 14.440484 5.501246
v 0.583498 14.720939 5.501246
v 0.583498 14.861171 5.258357
v 2.498522 14.650515 5.137451
v 2.498522 14.510905 5.137453
v 2.498522 14.441094 5.258361
v 2.498522 14.510905 5.379270
v 2.498522 14.650515 5.379269
v 2.498522 14.720323 5.258358
v 0.329691 14.720939 5.015473
v 0.329691 14.440482 5.015474
v 0.329691 14.300246 5.258358
v 0.329691 14.440484 5.501246
v 0.329691 14.720939 5.501246
v 0.329691 14.861171 5.258357
vt 0.012141 0.006218
vt 0.175481 0.006218
vt 0.175481 0.141444
vt 0.012141 0.141444
vt 0.338819 0.006218
vt 0.338819 0.141444
vt 0.502159 0.006218
vt 0.502159 0.141444
vt 0.665498 0.006218
vt 0.665498 0.141444
vt 0.828837 0.006218
vt 0.828837 0.141444
vt 0.992176 0.006218
vt 0.992176 0.141444
vt 0.175481 0.332896
vt 0.012141 0.332896
vt 0.338819 0.332896
vt 0.502159 0.332896
vt 0.665498 0.332896
vt 0.828837 0.332896
vt 0.992176 0.332896
vt 0.175481 0.496235
vt 0.012141 0.496235
vt 0.338819 0.496235
vt 0.502159 0.496235
vt 0.665498 0.496235
vt 0.828837 0.496235
vt 0.992176 0.496235
vt 0.175481 0.659574
vt 0.012141 0.659574
vt 0.338819 0.659574
vt 0.502159 0.659574
vt 0.665498 0.659574
vt 0.828837 0.659574
vt 0.992176 0.659574
vt 0.992003 0.757552
vt 0.991332 0.914285
vt 0.967073 0.900140
vt 0.967624 0.771489
vt 0.856605 0.678604
vt 0.856485 0.706686
vt 0.720535 0.756389
vt 0.744794 0.770534
vt 0.719863 0.913122
vt 0.744242 0.899185
vt 0.855262 0.992069
vt 0.855382 0.963988
vt 0.630641 0.970811
vt 0.631500 0.920794
vt 0.586897 0.995076
vt 0.544011 0.969324
vt 0.544869 0.919307
vt 0.588614 0.895043
vt 0.855752 0.877684
vt 0.892517 0.856667
vt 0.819168 0.856353
vt 0.819350 0.814006
vt 0.856115 0.792988
vt 0.892698 0.814321
vt 0.611498 0.931889
vt 0.588222 0.917912
vt 0.564478 0.931082
vt 0.564012 0.958229
vt 0.587290 0.972207
vt 0.611032 0.959036
vt 0.011865 0.664992
vt 0.129113 0.665099
vt 0.129015 0.771203
vt 0.011768 0.771096
vt 0.246358 0.665207
vt 0.246261 0.771310
vt 0.363603 0.665314
vt 0.363506 0.771418
vt 0.480850 0.665421
vt 0.480752 0.771525
vt 0.598098 0.665529
vt 0.715342 0.665636
vt 0.715245 0.771740
vt 0.598001 0.771633
vt 0.367607 0.890685
vt 0.252325 0.890021
vt 0.252927 0.785695
vt 0.368209 0.786360
vt 0.482888 0.891350
vt 0.483490 0.787025
vt 0.598165 0.892015
vt 0.598767 0.787690
vt 0.713447 0.892681
vt 0.714049 0.788356
vt 0.137048 0.889356
vt 0.137650 0.785030
vt 0.021765 0.888690
vt 0.022367 0.784365
vt 0.724871 0.921937
vt 0.724872 0.971099
vt 0.682295 0.995681
vt 0.682294 0.897354
vt 0.639718 0.971099
vt 0.639718 0.921937
vn 0.654654 0.000000 -0.755929
vn 0.654654 0.000000 -0.755929
vn 0.654654 0.000000 -0.755929
vn 0.654654 0.000000 -0.755929
vn 0.736380 -0.338284 -0.585925
vn 0.736380 -0.676568 0.000000
vn 0.425332 -0.905037 0.000000
vn 0.425332 -0.452519 -0.783785
vn 0.736380 -0.676568 0.000000
vn 0.736380 -0.338284 0.585925
vn 0.425332 -0.452519 0.783785
vn 0.425332 -0.905037 0.000000
vn 0.736380 -0.338284 0.585925
vn 0.736380 0.338284 0.585925
vn 0.425332 0.452519 0.783785
vn 0.425332 -0.452519 0.783785
vn 0.736380 0.338284 0.585925
vn 0.736380 0.676568 0.000000
vn 0.425332 0.905037 0.000000
vn 0.425332 0.452519 0.783785
vn 0.736380 0.676568 0.000000
vn 0.736380 0.338284 -0.585925
vn 0.425332 0.452519 -0.783785
vn 0.425332 0.905037 0.000000
vn 0.425332 0.452519 -0.783785
vn 0.425332 -0.452519 -0.783785
vn 0.000000 -0.500000 -0.866026
vn 0.000000 0.500000 -0.866026
vn 0.425332 -0.452519 -0.783785
vn 0.425332 -0.905037 0.000000
vn 0.000000 -1.000000 0.000000
vn 0.000000 -0.500000 -0.866026
vn 0.425332 -0.905037 0.000000
vn 0.425332 -0.452519 0.783785
vn 0.000000 -0.500000 0.866026
vn 0.000000 -1.000000 0.000000
vn 0.425332 -0.452519 0.783785
vn 0.425332 0.452519 0.783785
vn 0.000000 0.500000 0.866026
vn 0.000000 -0.500000 0.866026
vn 0.425332 0.452519 0.783785
vn 0.425332 0.905037 0.000000
vn 0.000000 1.000000 0.000000
vn 0.000000 0.500000 0.866026
vn 0.425332 0.905037 0.000000
vn 0.425332 0.452519 -0.783785
vn 0.000000 0.500000 -0.866026
vn 0.000000 1.000000 0.000000
vn 0.000000 0.500000 -0.866026
vn 0.000000 -0.500000 -0.866026
vn -0.425332 -0.452519 -0.783785
vn -0.425332 0.452519 -0.783785
vn 0.000000 -0.500000 -0.866026
vn 0.000000 -1.000000 0.000000
vn -0.425332 -0.905037 0.000000
vn -0.425332 -0.452519 -0.783785
vn 0.000000 -1.000000 0.000000
vn 0.000000 -0.500000 0.866026
vn -0.425332 -0.452519 0.783785
vn -0.425332 -0.905037 0.000000
vn 0.000000 -0.500000 0.866026
vn 0.000000 0.500000 0.866026
vn -0.425332 0.452519 0.783785
vn -0.425332 -0.452519 0.783785
vn 0.000000 0.500000 0.866026
vn 0.000000 1.000000 0.000000
vn -0.425332 0.905037 0.000000
vn -0.425332 0.452519 0.783785
vn 0.000000 1.000000 0.000000
vn 0.000000 0.500000 -0.866026
vn -0.425332 0.452519 -0.783785
vn -0.425332 0.905037 0.000000
vn -0.425332 0.452519 -0.783785
vn -0.425332 -0.452519 -0.783785
vn -0.766219 -0.321290 -0.556490
vn -0.766219 0.321290 -0.556490
vn -0.425332 -0.452519 -0.783785
vn -0.425332 -0.905037 0.000000
vn -0.766219 -0.642579 0.000000
vn -0.766219 -0.321290 -0.556490
vn -0.425332 -0.905037 0.000000
vn -0.425332 -0.452519 0.783785
vn -0.766219 -0.321290 0.556490
vn -0.766219 -0.642579 0.000000
vn -0.425332 -0.452519 0.783785
vn -0.425332 0.452519 0.783785
vn -0.766219 0.321289 0.556490
vn -0.766219 -0.321290 0.556490
vn -0.425332 0.452519 0.783785
vn -0.425332 0.905037 0.000000
vn -0.766219 0.642579 -0.000000
vn -0.766219 0.321289 0.556490
vn -0.425332 0.905037 0.000000
vn -0.425332 0.452519 -0.783785
vn -0.766219 0.321290 -0.556490
vn -0.766219 0.642579 -0.000000
vn 0.736380 -0.338284 -0.585925
vn 0.736380 0.338284 -0.585925
vn 1.000000 0.000000 0.000000
vn 1.000000 0.000000 0.000000
vn 0.736380 -0.676568 0.000000
vn 0.736380 -0.338284 -0.585925
vn 1.000000 0.000000 0.000000
vn 1.000000 0.000000 0.000000
vn 0.736380 -0.338284 0.585925
vn 0.736380 -0.676568 0.000000
vn 1.000000 0.000000 0.000000
vn 1.000000 0.000001 -0.000001
vn 0.736380 0.338284 0.585925
vn 0.736380 -0.338284 0.585925
vn 1.000000 0.000001 -0.000001
vn 1.000000 -0.000001 -0.000001
vn 0.736380 0.676568 0.000000
vn 0.736380 0.338284 0.585925
vn 1.000000 -0.000001 -0.000001
vn 1.000000 -0.000001 0.000000
vn 0.736380 0.338284 -0.585925
vn 0.736380 0.676568 0.000000
vn 1.000000 -0.000001 0.000000
vn 1.000000 0.000000 0.000000
vn 1.000000 0.000000 0.000000
vn 1.000000 0.000000 0.000000
vn 0.986667 0.081375 -0.140947
vn 0.986666 -0.081379 -0.140950
vn 1.000000 0.000000 0.000000
vn 1.000000 0.000000 0.000000
vn 0.986666 -0.081379 -0.140950
vn 0.986667 -0.162752 0.000001
vn 1.000000 0.000001 -0.000001
vn 1.000000 0.000000 0.000000
vn 0.986667 -0.162752 0.000001
vn 0.986667 -0.081376 0.140951
vn 1.000000 -0.000001 -0.000001
vn 1.000000 0.000001 -0.000001
vn 0.986667 -0.081376 0.140951
vn 0.986667 0.081378 0.140947
vn 1.000000 -0.000001 0.000000
vn 1.000000 -0.000001 -0.000001
vn 0.986667 0.081378 0.140947
vn 0.986667 0.162752 0.000001
vn 1.000000 0.000000 0.000000
vn 1.000000 -0.000001 0.000000
vn 0.986667 0.162752 0.000001
vn 0.986667 0.081375 -0.140947
vn -0.766219 -0.321290 -0.556490
vn -0.871975 -0.244773 -0.423965
vn -0.871978 0.244771 -0.423960
vn -0.766219 0.321290 -0.556490
vn -0.766219 -0.642579 0.000000
vn -0.871980 -0.489541 0.000002
vn -0.871975 -0.244773 -0.423965
vn -0.766219 -0.321290 -0.556490
vn -0.766219 -0.321290 0.556490
vn -0.871976 -0.244775 0.423961
vn -0.871980 -0.489541 0.000002
vn -0.766219 -0.642579 0.000000
vn -0.766219 0.321289 0.556490
vn -0.871980 0.244775 0.423954
vn -0.871976 -0.244775 0.423961
vn -0.766219 -0.321290 0.556490
vn -0.766219 0.642579 -0.000000
vn -0.871979 0.489543 0.000000
vn -0.871980 0.244775 0.423954
vn -0.766219 0.321289 0.556490
vn -0.766219 0.321290 -0.556490
vn -0.871978 0.244771 -0.423960
vn -0.871979 0.489543 0.000000
vn -0.766219 0.642579 -0.000000
vn 0.986666 -0.081379 -0.140950
vn 0.986667 0.081375 -0.140947
vn 0.741463 0.335494 -0.581099
vn 0.741463 -0.335498 -0.581097
vn 0.986667 -0.162752 0.000001
vn 0.986666 -0.081379 -0.140950
vn 0.741463 -0.335498 -0.581097
vn 0.741453 -0.671005 0.000001
vn 0.986667 -0.081376 0.140951
vn 0.986667 -0.162752 0.000001
vn 0.741453 -0.671005 0.000001
vn 0.741463 -0.335492 0.581100
vn 0.986667 0.081378 0.140947
vn 0.986667 -0.081376 0.140951
vn 0.741463 -0.335492 0.581100
vn 0.741463 0.335503 0.581094
vn 0.986667 0.162752 0.000001
vn 0.986667 0.081378 0.140947
vn 0.741463 0.335503 0.581094
vn 0.741458 0.671000 0.000001
vn 0.986667 0.081375 -0.140947
vn 0.986667 0.162752 0.000001
vn 0.741458 0.671000 0.000001
vn 0.741463 0.335494 -0.581099
vn -0.871978 0.244771 -0.423960
vn -0.871975 -0.244773 -0.423965
vn 0.000000 -0.499996 -0.866028
vn 0.000000 0.499996 -0.866028
vn -0.871975 -0.244773 -0.423965
vn -0.871980 -0.489541 0.000002
vn 0.000000 -1.000000 0.000004
vn 0.000000 -0.499996 -0.866028
vn -0.871980 -0.489541 0.000002
vn -0.871976 -0.244775 0.423961
vn 0.000000 -0.500002 0.866024
vn 0.000000 -1.000000 0.000004
vn -0.871976 -0.244775 0.423961
vn -0.871980 0.244775 0.423954
vn 0.000000 0.500008 0.866021
vn 0.000000 -0.500002 0.866024
vn -0.871980 0.244775 0.423954
vn -0.871979 0.489543 0.000000
vn 0.000000 1.000000 0.000000
vn 0.000000 0.500008 0.866021
vn -0.871979 0.489543 0.000000
vn -0.871978 0.244771 -0.423960
vn 0.000000 0.499996 -0.866028
vn 0.000000 1.000000 0.000000
vn 0.741463 -0.335498 -0.581097
vn 0.741463 0.335494 -0.581099
vn 0.741458 0.671000 0.000001
vn 0.741453 -0.671005 0.000001
vn 0.741453 -0.671005 0.000001
vn 0.741458 0.671000 0.000001
vn 0.741463 0.335503 0.581094
vn 0.741463 -0.335492 0.581100
s off
g pSphere1
usemtl initialShadingGroup
f 1/1/1 2/2/2 8/3/3 7/4/4
f 2/2/5 3/5/6 9/6/7 8/3/8
f 3/5/9 4/7/10 10/8/11 9/6/12
f 4/7/13 5/9/14 11/10/15 10/8/16
f 5/9/17 6/11/18 12/12/19 11/10/20
f 6/11/21 1/13/22 7/14/23 12/12/24
f 7/4/25 8/3/26 14/15/27 13/16/28
f 8/3/29 9/6/30 15/17/31 14/15/32
f 9/6/33 10/8/34 16/18/35 15/17/36
f 10/8/37 11/10/38 17/19/39 16/18/40
f 11/10/41 12/12/42 18/20/43 17/19/44
f 12/12/45 7/14/46 13/21/47 18/20/48
f 13/16/49 14/15/50 20/22/51 19/23/52
f 14/15/53 15/17/54 21/24/55 20/22/56
f 15/17/57 16/18/58 22/25/59 21/24/60
f 16/18/61 17/19/62 23/26/63 22/25/64
f 17/19/65 18/20/66 24/27/67 23/26/68
f 18/20/69 13/21/70 19/28/71 24/27/72
f 19/23/73 20/22/74 26/29/75 25/30/76
f 20/22/77 21/24/78 27/31/79 26/29/80
f 21/24/81 22/25/82 28/32/83 27/31/84
f 22/25/85 23/26/86 29/33/87 28/32/88
f 23/26/89 24/27/90 30/34/91 29/33/92
f 24/27/93 19/28/94 25/35/95 30/34/96
f 2/36/97 1/37/98 31/38/99 32/39/100
f 3/40/101 2/36/102 32/39/103 33/41/104
f 4/42/105 3/40/106 33/41/107 34/43/108
f 5/44/109 4/42/110 34/43/111 35/45/112
f 6/46/113 5/44/114 35/45/115 36/47/116
f 1/37/117 6/46/118 36/47/119 31/38/120
f 32/39/121 31/38/122 37/55/123 38/59/124
f 33/41/125 32/39/126 38/59/127 39/58/128
f 34/43/129 33/41/130 39/58/131 40/57/132
f 35/45/133 34/43/134 40/57/135 41/56/136
f 36/47/137 35/45/138 41/56/139 42/54/140
f 31/38/141 36/47/142 42/54/143 37/55/144
f 26/48/145 44/65/146 43/60/147 25/49/148
f 27/50/149 45/64/150 44/65/151 26/48/152
f 28/51/153 46/63/154 45/64/155 27/50/156
f 29/52/157 47/62/158 46/63/159 28/51/160
f 30/53/161 48/61/162 47/62/163 29/52/164
f 25/49/165 43/60/166 48/61/167 30/53/168
f 38/86/169 37/84/170 49/85/171 50/87/172
f 39/88/173 38/86/174 50/87/175 51/89/176
f 40/90/177 39/92/178 51/93/179 52/91/180
f 41/81/181 40/90/182 52/91/183 53/82/184
f 42/80/185 41/81/186 53/82/187 54/83/188
f 37/84/189 42/80/190 54/83/191 49/85/192
f 43/70/193 44/72/194 56/73/195 55/71/196
f 44/72/197 45/74/198 57/75/199 56/73/200
f 45/74/201 46/76/202 58/79/203 57/75/204
f 46/76/205 47/77/206 59/78/207 58/79/208
f 47/66/209 48/67/210 60/68/211 59/69/212
f 48/67/213 43/70/214 55/71/215 60/68/216
f 50/94/217 49/95/218 54/96/219 51/97/220
f 51/97/221 54/96/222 53/98/223 52/99/224
