# This file uses centimeters as units for non-parametric coordinates.

mtllib ggj_door.mtl
g default
v -0.464087 -0.352123 7.500000
v 0.464087 -0.352123 7.500000
v -0.464087 29.147879 7.500000
v 0.464087 29.147879 7.500000
v -0.464087 29.147879 -7.500000
v 0.464087 29.147879 -7.500000
v -0.464087 -0.352123 -7.500000
v 0.464087 -0.352123 -7.500000
v 0.464087 29.147877 2.480809
v -0.464087 29.147877 2.480809
v -0.464087 -0.352123 2.480809
v 0.464087 -0.352123 2.480809
v 0.464087 29.147877 -2.520159
v -0.464087 29.147877 -2.520159
v -0.464087 -0.352123 -2.520159
v 0.464087 -0.352123 -2.520159
v 0.464087 21.592783 7.500000
v -0.464087 21.592783 7.500000
v -0.464087 21.592781 2.480809
v -0.464087 21.592781 -2.520159
v -0.464087 21.592783 -7.500000
v 0.464087 21.592783 -7.500000
v 0.464087 21.592781 -2.520159
v 0.464087 21.592781 2.480809
v 0.464087 13.853436 7.500000
v -0.464087 13.853436 7.500000
v -0.464087 13.853435 2.480809
v -0.464087 13.853435 -2.520159
v -0.464087 13.853436 -7.500000
v 0.464087 13.853436 -7.500000
v 0.464087 13.853435 -2.520159
v 0.464087 13.853435 2.480809
v 0.464087 6.509546 7.500000
v -0.464087 6.509545 7.500000
v -0.464087 6.509544 2.480809
v -0.464087 6.509544 -2.520159
v -0.464087 6.509546 -7.500000
v 0.464087 6.509545 -7.500000
v 0.464087 6.509545 -2.520159
v 0.464087 6.509545 2.480809
vt 0.474961 0.024552
vt 0.503452 0.024747
vt 0.497260 0.930267
vt 0.977442 0.009630
vt 0.991118 0.258219
vt 0.975742 0.258114
vt 0.987777 0.746904
vt 0.972401 0.746798
vt 0.986077 0.995387
vt 0.970701 0.995282
vt 0.963886 0.027895
vt 0.957695 0.933416
vt 0.014527 0.021403
vt 0.008335 0.926924
vt 0.992817 0.009735
vt 0.468770 0.930072
vt 0.992249 0.092881
vt 0.651327 0.931321
vt 0.976873 0.092776
vt 0.314702 0.929019
vt 0.971270 0.912136
vt 0.320894 0.023498
vt 0.986646 0.912241
vt 0.657519 0.025800
vt 0.991682 0.175725
vt 0.804835 0.932371
vt 0.976307 0.175620
vt 0.161194 0.927969
vt 0.971836 0.829292
vt 0.167387 0.022449
vt 0.987212 0.829398
vt 0.811027 0.026850
vt 0.498846 0.698359
vt 0.470355 0.698164
vt 0.316288 0.697111
vt 0.162780 0.696061
vt 0.974887 0.383268
vt 0.009921 0.695016
vt 0.990262 0.383374
vt 0.959280 0.701508
vt 0.806421 0.700462
vt 0.652913 0.699413
vt 0.500470 0.460795
vt 0.471980 0.460600
vt 0.317913 0.459547
vt 0.164405 0.458497
vt 0.974010 0.511475
vt 0.011545 0.457452
vt 0.989386 0.511580
vt 0.960905 0.463944
vt 0.808045 0.462898
vt 0.654538 0.461849
vt 0.502012 0.235370
vt 0.473521 0.235175
vt 0.319454 0.234121
vt 0.165946 0.233072
vt 0.973178 0.633131
vt 0.013087 0.232027
vt 0.988554 0.633236
vt 0.962446 0.238518
vt 0.809587 0.237473
vt 0.656079 0.236423
vn 0.000000 0.000000 1.000000
vn 0.000000 0.000000 1.000000
vn 0.000000 0.000000 1.000000
vn 0.000000 0.000000 1.000000
vn 0.000000 1.000000 0.000000
vn 0.000000 1.000000 0.000000
vn 0.000000 1.000000 -0.000000
vn 0.000000 1.000000 -0.000000
vn 0.000000 0.000000 -1.000000
vn 0.000000 0.000000 -1.000000
vn 0.000000 0.000000 -1.000000
vn 0.000000 0.000000 -1.000000
vn -0.000000 -1.000000 -0.000000
vn -0.000000 -1.000000 -0.000000
vn 0.000000 -1.000000 0.000000
vn 0.000000 -1.000000 0.000000
vn 1.000000 0.000000 0.000000
vn 1.000000 0.000000 0.000000
vn 1.000000 0.000000 0.000000
vn 1.000000 0.000000 0.000000
vn -1.000000 0.000000 0.000000
vn -1.000000 0.000000 0.000000
vn -1.000000 0.000000 0.000000
vn -1.000000 0.000000 0.000000
vn 0.000000 1.000000 0.000000
vn 0.000000 1.000000 0.000000
vn -1.000000 0.000000 0.000000
vn -1.000000 0.000000 0.000000
vn -0.000000 -1.000000 0.000000
vn -0.000000 -1.000000 0.000000
vn 1.000000 0.000000 0.000000
vn 1.000000 0.000000 0.000000
vn 0.000000 1.000000 0.000000
vn 0.000000 1.000000 0.000000
vn -1.000000 0.000000 0.000000
vn -1.000000 0.000000 0.000000
vn 0.000000 -1.000000 0.000000
vn 0.000000 -1.000000 0.000000
vn 1.000000 0.000000 0.000000
vn 1.000000 0.000000 0.000000
vn 0.000000 0.000000 1.000000
vn 0.000000 0.000000 1.000000
vn 0.000000 0.000000 1.000000
vn 0.000000 0.000000 1.000000
vn -1.000000 0.000000 0.000000
vn -1.000000 0.000000 0.000000
vn -1.000000 0.000000 0.000000
vn -1.000000 0.000000 0.000000
vn -1.000000 0.000000 0.000000
vn -1.000000 0.000000 0.000000
vn -1.000000 0.000000 0.000000
vn -1.000000 0.000000 0.000000
vn 0.000000 0.000000 -1.000000
vn 0.000000 0.000000 -1.000000
vn 0.000000 0.000000 -1.000000
vn 0.000000 0.000000 -1.000000
vn 1.000000 0.000000 0.000000
vn 1.000000 0.000000 0.000000
vn 1.000000 0.000000 0.000000
vn 1.000000 0.000000 0.000000
vn 1.000000 0.000000 0.000000
vn 1.000000 0.000000 0.000000
vn 1.000000 0.000000 0.000000
vn 1.000000 0.000000 0.000000
vn 0.000000 0.000000 1.000000
vn 0.000000 0.000000 1.000000
vn -1.000000 0.000000 0.000000
vn -1.000000 0.000000 0.000000
vn -1.000000 0.000000 0.000000
vn -1.000000 0.000000 0.000000
vn 0.000000 0.000000 -1.000000
vn 0.000000 0.000000 -1.000000
vn 1.000000 0.000000 0.000000
vn 1.000000 0.000000 0.000000
vn 1.000000 0.000000 0.000000
vn 1.000000 0.000000 0.000000
s 1
g pCube3
usemtl initialShadingGroup
f 1/1/1 2/2/2 33/53/3 34/54/4
s 2
f 3/4/5 4/15/6 9/17/7 10/19/8
s 3
f 37/57/9 38/59/10 8/7/11 7/8/12
s 4
f 11/21/13 12/23/14 2/9/15 1/10/16
s 5
f 2/2/17 12/24/18 40/62/19 33/53/20
s 6
f 11/22/21 1/1/22 34/54/23 35/55/24
s 2
f 10/19/8 9/17/7 13/25/25 14/27/26
s 6
f 15/30/27 11/22/21 35/55/24 36/56/28
s 4
f 15/29/29 16/31/30 12/23/14 11/21/13
s 5
f 40/62/19 12/24/18 16/32/31 39/61/32
s 2
f 14/27/26 13/25/25 6/5/33 5/6/34
s 6
f 7/13/35 15/30/27 36/56/28 37/58/36
s 4
f 7/8/37 8/7/38 16/31/30 15/29/29
s 5
f 39/61/32 16/32/31 8/11/39 38/60/40
s 1
f 18/34/41 17/33/42 4/3/43 3/16/44
s 6
f 19/35/45 18/34/46 3/16/47 10/20/48
f 20/36/49 19/35/45 10/20/48 14/28/50
f 21/38/51 20/36/49 14/28/50 5/14/52
s 3
f 5/6/53 6/5/54 22/39/55 21/37/56
s 5
f 13/26/57 23/41/58 22/40/59 6/12/60
f 9/18/61 24/42/62 23/41/58 13/26/57
f 17/33/63 24/42/62 9/18/61 4/3/64
s 1
f 26/44/65 25/43/66 17/33/42 18/34/41
s 6
f 27/45/67 26/44/68 18/34/46 19/35/45
f 28/46/69 27/45/67 19/35/45 20/36/49
f 29/48/70 28/46/69 20/36/49 21/38/51
s 3
f 21/37/56 22/39/55 30/49/71 29/47/72
s 5
f 23/41/58 31/51/73 30/50/74 22/40/59
f 24/42/62 32/52/75 31/51/73 23/41/58
f 25/43/76 32/52/75 24/42/62 17/33/63
s 1
f 34/54/4 33/53/3 25/43/66 26/44/65
s 6
f 35/55/24 34/54/23 26/44/68 27/45/67
f 36/56/28 35/55/24 27/45/67 28/46/69
f 37/58/36 36/56/28 28/46/69 29/48/70
s 3
f 29/47/72 30/49/71 38/59/10 37/57/9
s 5
f 31/51/73 39/61/32 38/60/40 30/50/74
f 32/52/75 40/62/19 39/61/32 31/51/73
f 33/53/20 40/62/19 32/52/75 25/43/76
